<mxfile host="Electron" modified="2024-07-12T12:58:21.112Z" agent="Mozilla/5.0 (Macintosh; Intel Mac OS X 10_15_7) AppleWebKit/537.36 (KHTML, like Gecko) draw.io/24.6.4 Chrome/124.0.6367.207 Electron/30.0.6 Safari/537.36" etag="wUslYWkLTfzTJ7Uirc7a" version="24.6.4" type="device">
  <diagram id="C5RBs43oDa-KdzZeNtuy" name="Page-1">
    <mxGraphModel dx="2390" dy="1423" grid="1" gridSize="10" guides="1" tooltips="1" connect="1" arrows="1" fold="1" page="1" pageScale="1" pageWidth="827" pageHeight="1169" math="0" shadow="0">
      <root>
        <mxCell id="WIyWlLk6GJQsqaUBKTNV-0" />
        <mxCell id="WIyWlLk6GJQsqaUBKTNV-1" parent="WIyWlLk6GJQsqaUBKTNV-0" />
        <mxCell id="PcZrBQODwfO-kjVytySW-0" value="&lt;div style=&quot;background-color:#292929;padding:0px 0px 0px 2px;&quot;&gt;&lt;div style=&quot;color:#d7d7d7;background-color:#292929;font-family:&amp;quot;Menlo&amp;quot;;font-size:12pt;white-space:pre;&quot;&gt;&lt;p style=&quot;margin:0;&quot;&gt;&lt;span style=&quot;color:#dfdfdf;background-color:#35689b;font-weight:bold;&quot;&gt;{&lt;/span&gt;&lt;/p&gt;&lt;p style=&quot;margin:0;&quot;&gt;&lt;span style=&quot;color:#dfdfdf;&quot;&gt;    &lt;/span&gt;&lt;span style=&quot;color:#55aa40;&quot;&gt;&quot;_id&quot;&lt;/span&gt;&lt;span style=&quot;color:#dfdfdf;&quot;&gt; &lt;/span&gt;&lt;span style=&quot;color:#dfdfdf;font-weight:bold;&quot;&gt;:&lt;/span&gt;&lt;span style=&quot;color:#dfdfdf;&quot;&gt; ObjectId&lt;/span&gt;&lt;span style=&quot;color:#dfdfdf;font-weight:bold;&quot;&gt;(&lt;/span&gt;&lt;span style=&quot;color:#55aa40;&quot;&gt;&quot;6690d7e4aa62407a5b83c424&quot;&lt;/span&gt;&lt;span style=&quot;color:#dfdfdf;font-weight:bold;&quot;&gt;),&lt;/span&gt;&lt;/p&gt;&lt;p style=&quot;margin:0;&quot;&gt;&lt;span style=&quot;color:#dfdfdf;&quot;&gt;    &lt;/span&gt;&lt;span style=&quot;color:#55aa40;&quot;&gt;&quot;name&quot;&lt;/span&gt;&lt;span style=&quot;color:#dfdfdf;&quot;&gt; &lt;/span&gt;&lt;span style=&quot;color:#dfdfdf;font-weight:bold;&quot;&gt;:&lt;/span&gt;&lt;span style=&quot;color:#dfdfdf;&quot;&gt; &lt;/span&gt;&lt;span style=&quot;color:#55aa40;&quot;&gt;&quot;fake-user-04&quot;&lt;/span&gt;&lt;span style=&quot;color:#dfdfdf;font-weight:bold;&quot;&gt;,&lt;/span&gt;&lt;/p&gt;&lt;p style=&quot;margin:0;&quot;&gt;&lt;span style=&quot;color:#dfdfdf;&quot;&gt;    &lt;/span&gt;&lt;span style=&quot;color:#55aa40;&quot;&gt;&quot;carNumber&quot;&lt;/span&gt;&lt;span style=&quot;color:#dfdfdf;&quot;&gt; &lt;/span&gt;&lt;span style=&quot;color:#dfdfdf;font-weight:bold;&quot;&gt;:&lt;/span&gt;&lt;span style=&quot;color:#dfdfdf;&quot;&gt; &lt;/span&gt;&lt;span style=&quot;color:#55aa40;&quot;&gt;&quot;ก 888 BKK &quot;&lt;/span&gt;&lt;span style=&quot;color:#dfdfdf;font-weight:bold;&quot;&gt;,&lt;/span&gt;&lt;/p&gt;&lt;p style=&quot;margin:0;&quot;&gt;&lt;span style=&quot;color:#dfdfdf;&quot;&gt;    &lt;/span&gt;&lt;span style=&quot;color:#55aa40;&quot;&gt;&quot;status&quot;&lt;/span&gt;&lt;span style=&quot;color:#dfdfdf;&quot;&gt; &lt;/span&gt;&lt;span style=&quot;color:#dfdfdf;font-weight:bold;&quot;&gt;:&lt;/span&gt;&lt;span style=&quot;color:#dfdfdf;&quot;&gt; &lt;/span&gt;&lt;span style=&quot;color:#55aa40;&quot;&gt;&quot;Active&quot;&lt;/span&gt;&lt;span style=&quot;color:#dfdfdf;font-weight:bold;&quot;&gt;,&lt;/span&gt;&lt;/p&gt;&lt;p style=&quot;margin:0;&quot;&gt;&lt;span style=&quot;color:#dfdfdf;&quot;&gt;    &lt;/span&gt;&lt;span style=&quot;color:#55aa40;&quot;&gt;&quot;deleted&quot;&lt;/span&gt;&lt;span style=&quot;color:#dfdfdf;&quot;&gt; &lt;/span&gt;&lt;span style=&quot;color:#dfdfdf;font-weight:bold;&quot;&gt;:&lt;/span&gt;&lt;span style=&quot;color:#dfdfdf;&quot;&gt; &lt;/span&gt;&lt;span style=&quot;color:#f255b3;&quot;&gt;false&lt;/span&gt;&lt;span style=&quot;color:#dfdfdf;font-weight:bold;&quot;&gt;,&lt;/span&gt;&lt;/p&gt;&lt;p style=&quot;margin:0;&quot;&gt;&lt;span style=&quot;color:#dfdfdf;&quot;&gt;    &lt;/span&gt;&lt;span style=&quot;color:#55aa40;&quot;&gt;&quot;createdAt&quot;&lt;/span&gt;&lt;span style=&quot;color:#dfdfdf;&quot;&gt; &lt;/span&gt;&lt;span style=&quot;color:#dfdfdf;font-weight:bold;&quot;&gt;:&lt;/span&gt;&lt;span style=&quot;color:#dfdfdf;&quot;&gt; &lt;/span&gt;&lt;span style=&quot;color:#55aa40;&quot;&gt;&quot;1720768484618&quot;&lt;/span&gt;&lt;span style=&quot;color:#dfdfdf;font-weight:bold;&quot;&gt;,&lt;/span&gt;&lt;/p&gt;&lt;p style=&quot;margin:0;&quot;&gt;&lt;span style=&quot;color:#dfdfdf;&quot;&gt;    &lt;/span&gt;&lt;span style=&quot;color:#55aa40;&quot;&gt;&quot;__v&quot;&lt;/span&gt;&lt;span style=&quot;color:#dfdfdf;&quot;&gt; &lt;/span&gt;&lt;span style=&quot;color:#dfdfdf;font-weight:bold;&quot;&gt;:&lt;/span&gt;&lt;span style=&quot;color:#dfdfdf;&quot;&gt; NumberInt&lt;/span&gt;&lt;span style=&quot;color:#dfdfdf;font-weight:bold;&quot;&gt;(&lt;/span&gt;&lt;span style=&quot;color:#4e96d8;&quot;&gt;0&lt;/span&gt;&lt;span style=&quot;color:#dfdfdf;font-weight:bold;&quot;&gt;)&lt;/span&gt;&lt;/p&gt;&lt;p style=&quot;background-color:#49473f;margin:0;&quot;&gt;&lt;span style=&quot;color:#dfdfdf;background-color:#35689b;font-weight:bold;&quot;&gt;}&lt;/span&gt;&lt;/p&gt;&lt;/div&gt;&lt;/div&gt;" style="text;whiteSpace=wrap;html=1;" parent="WIyWlLk6GJQsqaUBKTNV-1" vertex="1">
          <mxGeometry x="119.86000000000001" y="105" width="510" height="200" as="geometry" />
        </mxCell>
        <mxCell id="PcZrBQODwfO-kjVytySW-2" value="&lt;span style=&quot;background-color:#292929;padding:0px 0px 0px 2px;&quot;&gt;&lt;span style=&quot;color: rgb(215, 215, 215); font-family: Menlo; font-size: 12pt; white-space: pre;&quot;&gt;&lt;span style=&quot;color:#55aa40;&quot;&gt;users&lt;/span&gt;&lt;/span&gt;&lt;/span&gt;" style="text;html=1;align=center;verticalAlign=middle;whiteSpace=wrap;rounded=0;" parent="WIyWlLk6GJQsqaUBKTNV-1" vertex="1">
          <mxGeometry x="119.86000000000001" y="85" width="60" height="30" as="geometry" />
        </mxCell>
        <mxCell id="PcZrBQODwfO-kjVytySW-3" value="&lt;span style=&quot;background-color:#292929;padding:0px 0px 0px 2px;&quot;&gt;&lt;span style=&quot;color:#d7d7d7;background-color:#292929;font-family:&amp;quot;Menlo&amp;quot;;font-size:12pt;white-space:pre;&quot;&gt;&lt;span style=&quot;color:#55aa40;&quot;&gt;eventparkings&lt;/span&gt;&lt;/span&gt;&lt;/span&gt;" style="text;whiteSpace=wrap;html=1;" parent="WIyWlLk6GJQsqaUBKTNV-1" vertex="1">
          <mxGeometry x="119.86000000000001" y="385" width="160" height="40" as="geometry" />
        </mxCell>
        <mxCell id="PcZrBQODwfO-kjVytySW-4" value="&lt;div style=&quot;background-color:#292929;padding:0px 0px 0px 2px;&quot;&gt;&lt;div style=&quot;color:#d7d7d7;background-color:#292929;font-family:&amp;quot;Menlo&amp;quot;;font-size:12pt;white-space:pre;&quot;&gt;&lt;p style=&quot;margin:0;&quot;&gt;&lt;span style=&quot;color:#dfdfdf;font-weight:bold;&quot;&gt;{&lt;/span&gt;&lt;/p&gt;&lt;p style=&quot;margin:0;&quot;&gt;&lt;span style=&quot;color:#dfdfdf;&quot;&gt;    &lt;/span&gt;&lt;span style=&quot;color:#55aa40;&quot;&gt;&quot;_id&quot;&lt;/span&gt;&lt;span style=&quot;color:#dfdfdf;&quot;&gt; &lt;/span&gt;&lt;span style=&quot;color:#dfdfdf;font-weight:bold;&quot;&gt;:&lt;/span&gt;&lt;span style=&quot;color:#dfdfdf;&quot;&gt; ObjectId&lt;/span&gt;&lt;span style=&quot;color:#dfdfdf;font-weight:bold;&quot;&gt;(&lt;/span&gt;&lt;span style=&quot;color:#55aa40;&quot;&gt;&quot;668fcdecbc415113bc754562&quot;&lt;/span&gt;&lt;span style=&quot;color:#dfdfdf;font-weight:bold;&quot;&gt;),&lt;/span&gt;&lt;/p&gt;&lt;p style=&quot;margin:0;&quot;&gt;&lt;span style=&quot;color:#dfdfdf;&quot;&gt;    &lt;/span&gt;&lt;span style=&quot;color:#55aa40;&quot;&gt;&quot;user&quot;&lt;/span&gt;&lt;span style=&quot;color:#dfdfdf;&quot;&gt; &lt;/span&gt;&lt;span style=&quot;color:#dfdfdf;font-weight:bold;&quot;&gt;:&lt;/span&gt;&lt;span style=&quot;color:#dfdfdf;&quot;&gt; &lt;/span&gt;&lt;span style=&quot;color:#dfdfdf;font-weight:bold;&quot;&gt;{&lt;/span&gt;&lt;/p&gt;&lt;p style=&quot;margin:0;&quot;&gt;&lt;span style=&quot;color:#dfdfdf;&quot;&gt;        &lt;/span&gt;&lt;span style=&quot;color:#55aa40;&quot;&gt;&quot;userId&quot;&lt;/span&gt;&lt;span style=&quot;color:#dfdfdf;&quot;&gt; &lt;/span&gt;&lt;span style=&quot;color:#dfdfdf;font-weight:bold;&quot;&gt;:&lt;/span&gt;&lt;span style=&quot;color:#dfdfdf;&quot;&gt; &lt;/span&gt;&lt;span style=&quot;color:#55aa40;&quot;&gt;&quot;668fb17c1f10c7bc48e1af18&quot;&lt;/span&gt;&lt;span style=&quot;color:#dfdfdf;font-weight:bold;&quot;&gt;,&lt;/span&gt;&lt;/p&gt;&lt;p style=&quot;margin:0;&quot;&gt;&lt;span style=&quot;color:#dfdfdf;&quot;&gt;        &lt;/span&gt;&lt;span style=&quot;color:#55aa40;&quot;&gt;&quot;name&quot;&lt;/span&gt;&lt;span style=&quot;color:#dfdfdf;&quot;&gt; &lt;/span&gt;&lt;span style=&quot;color:#dfdfdf;font-weight:bold;&quot;&gt;:&lt;/span&gt;&lt;span style=&quot;color:#dfdfdf;&quot;&gt; &lt;/span&gt;&lt;span style=&quot;color:#55aa40;&quot;&gt;&quot;user-01&quot;&lt;/span&gt;&lt;span style=&quot;color:#dfdfdf;font-weight:bold;&quot;&gt;,&lt;/span&gt;&lt;/p&gt;&lt;p style=&quot;margin:0;&quot;&gt;&lt;span style=&quot;color:#dfdfdf;&quot;&gt;        &lt;/span&gt;&lt;span style=&quot;color:#55aa40;&quot;&gt;&quot;carNumber&quot;&lt;/span&gt;&lt;span style=&quot;color:#dfdfdf;&quot;&gt; &lt;/span&gt;&lt;span style=&quot;color:#dfdfdf;font-weight:bold;&quot;&gt;:&lt;/span&gt;&lt;span style=&quot;color:#dfdfdf;&quot;&gt; &lt;/span&gt;&lt;span style=&quot;color:#55aa40;&quot;&gt;&quot;ก 888 BKK &quot;&lt;/span&gt;&lt;/p&gt;&lt;p style=&quot;margin:0;&quot;&gt;&lt;span style=&quot;color:#dfdfdf;&quot;&gt;    &lt;/span&gt;&lt;span style=&quot;color:#dfdfdf;font-weight:bold;&quot;&gt;},&lt;/span&gt;&lt;/p&gt;&lt;p style=&quot;margin:0;&quot;&gt;&lt;span style=&quot;color:#dfdfdf;&quot;&gt;    &lt;/span&gt;&lt;span style=&quot;color:#55aa40;&quot;&gt;&quot;parking&quot;&lt;/span&gt;&lt;span style=&quot;color:#dfdfdf;&quot;&gt; &lt;/span&gt;&lt;span style=&quot;color:#dfdfdf;font-weight:bold;&quot;&gt;:&lt;/span&gt;&lt;span style=&quot;color:#dfdfdf;&quot;&gt; &lt;/span&gt;&lt;span style=&quot;color:#dfdfdf;font-weight:bold;&quot;&gt;{&lt;/span&gt;&lt;/p&gt;&lt;p style=&quot;margin:0;&quot;&gt;&lt;span style=&quot;color:#dfdfdf;&quot;&gt;        &lt;/span&gt;&lt;span style=&quot;color:#55aa40;&quot;&gt;&quot;parkingId&quot;&lt;/span&gt;&lt;span style=&quot;color:#dfdfdf;&quot;&gt; &lt;/span&gt;&lt;span style=&quot;color:#dfdfdf;font-weight:bold;&quot;&gt;:&lt;/span&gt;&lt;span style=&quot;color:#dfdfdf;&quot;&gt; &lt;/span&gt;&lt;span style=&quot;color:#55aa40;&quot;&gt;&quot;668f9b199602a7f458e7120d&quot;&lt;/span&gt;&lt;span style=&quot;color:#dfdfdf;font-weight:bold;&quot;&gt;,&lt;/span&gt;&lt;/p&gt;&lt;p style=&quot;margin:0;&quot;&gt;&lt;span style=&quot;color:#dfdfdf;&quot;&gt;        &lt;/span&gt;&lt;span style=&quot;color:#55aa40;&quot;&gt;&quot;name&quot;&lt;/span&gt;&lt;span style=&quot;color:#dfdfdf;&quot;&gt; &lt;/span&gt;&lt;span style=&quot;color:#dfdfdf;font-weight:bold;&quot;&gt;:&lt;/span&gt;&lt;span style=&quot;color:#dfdfdf;&quot;&gt; &lt;/span&gt;&lt;span style=&quot;color:#55aa40;&quot;&gt;&quot;Park A10&quot;&lt;/span&gt;&lt;span style=&quot;color:#dfdfdf;font-weight:bold;&quot;&gt;,&lt;/span&gt;&lt;/p&gt;&lt;p style=&quot;margin:0;&quot;&gt;&lt;span style=&quot;color:#dfdfdf;&quot;&gt;        &lt;/span&gt;&lt;span style=&quot;color:#55aa40;&quot;&gt;&quot;location&quot;&lt;/span&gt;&lt;span style=&quot;color:#dfdfdf;&quot;&gt; &lt;/span&gt;&lt;span style=&quot;color:#dfdfdf;font-weight:bold;&quot;&gt;:&lt;/span&gt;&lt;span style=&quot;color:#dfdfdf;&quot;&gt; &lt;/span&gt;&lt;span style=&quot;color:#dfdfdf;font-weight:bold;&quot;&gt;{&lt;/span&gt;&lt;/p&gt;&lt;p style=&quot;background-color:#292929;margin:0;&quot;&gt;&lt;span style=&quot;color:#dfdfdf;&quot;&gt;            &lt;/span&gt;&lt;span style=&quot;color:#55aa40;&quot;&gt;&quot;buildingId&quot;&lt;/span&gt;&lt;span style=&quot;color:#dfdfdf;&quot;&gt; &lt;/span&gt;&lt;span style=&quot;color:#dfdfdf;font-weight:bold;&quot;&gt;:&lt;/span&gt;&lt;span style=&quot;color:#dfdfdf;&quot;&gt; &lt;/span&gt;&lt;span style=&quot;color:#55aa40;&quot;&gt;&quot;668ec9921567b18c176488fe&quot;&lt;/span&gt;&lt;span style=&quot;color:#dfdfdf;font-weight:bold;&quot;&gt;,&lt;/span&gt;&lt;/p&gt;&lt;p style=&quot;background-color:#292929;margin:0;&quot;&gt;&lt;span style=&quot;color:#dfdfdf;&quot;&gt;            &lt;/span&gt;&lt;span style=&quot;color:#55aa40;&quot;&gt;&quot;floorId&quot;&lt;/span&gt;&lt;span style=&quot;color:#dfdfdf;&quot;&gt; &lt;/span&gt;&lt;span style=&quot;color:#dfdfdf;font-weight:bold;&quot;&gt;:&lt;/span&gt;&lt;span style=&quot;color:#dfdfdf;&quot;&gt; &lt;/span&gt;&lt;span style=&quot;color:#55aa40;&quot;&gt;&quot;668ec9e6df58a2185c2ef73f&quot;&lt;/span&gt;&lt;span style=&quot;color:#dfdfdf;font-weight:bold;&quot;&gt;,&lt;/span&gt;&lt;/p&gt;&lt;p style=&quot;margin:0;&quot;&gt;&lt;span style=&quot;color:#dfdfdf;&quot;&gt;            &lt;/span&gt;&lt;span style=&quot;color:#55aa40;&quot;&gt;&quot;zoneId&quot;&lt;/span&gt;&lt;span style=&quot;color:#dfdfdf;&quot;&gt; &lt;/span&gt;&lt;span style=&quot;color:#dfdfdf;font-weight:bold;&quot;&gt;:&lt;/span&gt;&lt;span style=&quot;color:#dfdfdf;&quot;&gt; &lt;/span&gt;&lt;span style=&quot;color:#55aa40;&quot;&gt;&quot;668ec9f5df58a2185c2ef742&quot;&lt;/span&gt;&lt;/p&gt;&lt;p style=&quot;margin:0;&quot;&gt;&lt;span style=&quot;color:#dfdfdf;&quot;&gt;        &lt;/span&gt;&lt;span style=&quot;color:#dfdfdf;font-weight:bold;&quot;&gt;}&lt;/span&gt;&lt;/p&gt;&lt;p style=&quot;margin:0;&quot;&gt;&lt;span style=&quot;color:#dfdfdf;&quot;&gt;    &lt;/span&gt;&lt;span style=&quot;color:#dfdfdf;font-weight:bold;&quot;&gt;},&lt;/span&gt;&lt;/p&gt;&lt;p style=&quot;margin:0;&quot;&gt;&lt;span style=&quot;color:#dfdfdf;&quot;&gt;    &lt;/span&gt;&lt;span style=&quot;color:#55aa40;&quot;&gt;&quot;parkingPackages&quot;&lt;/span&gt;&lt;span style=&quot;color:#dfdfdf;&quot;&gt; &lt;/span&gt;&lt;span style=&quot;color:#dfdfdf;font-weight:bold;&quot;&gt;:&lt;/span&gt;&lt;span style=&quot;color:#dfdfdf;&quot;&gt; &lt;/span&gt;&lt;span style=&quot;color:#dfdfdf;font-weight:bold;&quot;&gt;{&lt;/span&gt;&lt;/p&gt;&lt;p style=&quot;margin:0;&quot;&gt;&lt;span style=&quot;color:#dfdfdf;&quot;&gt;        &lt;/span&gt;&lt;span style=&quot;color:#55aa40;&quot;&gt;&quot;parkingPackageId&quot;&lt;/span&gt;&lt;span style=&quot;color:#dfdfdf;&quot;&gt; &lt;/span&gt;&lt;span style=&quot;color:#dfdfdf;font-weight:bold;&quot;&gt;:&lt;/span&gt;&lt;span style=&quot;color:#dfdfdf;&quot;&gt; &lt;/span&gt;&lt;span style=&quot;color:#55aa40;&quot;&gt;&quot;668f8ff6bf8a587bb1f33d04&quot;&lt;/span&gt;&lt;span style=&quot;color:#dfdfdf;font-weight:bold;&quot;&gt;,&lt;/span&gt;&lt;/p&gt;&lt;p style=&quot;margin:0;&quot;&gt;&lt;span style=&quot;color:#dfdfdf;&quot;&gt;        &lt;/span&gt;&lt;span style=&quot;color:#55aa40;&quot;&gt;&quot;name&quot;&lt;/span&gt;&lt;span style=&quot;color:#dfdfdf;&quot;&gt; &lt;/span&gt;&lt;span style=&quot;color:#dfdfdf;font-weight:bold;&quot;&gt;:&lt;/span&gt;&lt;span style=&quot;color:#dfdfdf;&quot;&gt; &lt;/span&gt;&lt;span style=&quot;color:#55aa40;&quot;&gt;&quot;package-001&quot;&lt;/span&gt;&lt;span style=&quot;color:#dfdfdf;font-weight:bold;&quot;&gt;,&lt;/span&gt;&lt;/p&gt;&lt;p style=&quot;margin:0;&quot;&gt;&lt;span style=&quot;color:#dfdfdf;&quot;&gt;        &lt;/span&gt;&lt;span style=&quot;color:#55aa40;&quot;&gt;&quot;pricePerHour&quot;&lt;/span&gt;&lt;span style=&quot;color:#dfdfdf;&quot;&gt; &lt;/span&gt;&lt;span style=&quot;color:#dfdfdf;font-weight:bold;&quot;&gt;:&lt;/span&gt;&lt;span style=&quot;color:#dfdfdf;&quot;&gt; NumberInt&lt;/span&gt;&lt;span style=&quot;color:#dfdfdf;font-weight:bold;&quot;&gt;(&lt;/span&gt;&lt;span style=&quot;color:#4e96d8;&quot;&gt;40&lt;/span&gt;&lt;span style=&quot;color:#dfdfdf;font-weight:bold;&quot;&gt;),&lt;/span&gt;&lt;/p&gt;&lt;p style=&quot;margin:0;&quot;&gt;&lt;span style=&quot;color:#dfdfdf;&quot;&gt;        &lt;/span&gt;&lt;span style=&quot;color:#55aa40;&quot;&gt;&quot;freeParkingMinute&quot;&lt;/span&gt;&lt;span style=&quot;color:#dfdfdf;&quot;&gt; &lt;/span&gt;&lt;span style=&quot;color:#dfdfdf;font-weight:bold;&quot;&gt;:&lt;/span&gt;&lt;span style=&quot;color:#dfdfdf;&quot;&gt; NumberInt&lt;/span&gt;&lt;span style=&quot;color:#dfdfdf;font-weight:bold;&quot;&gt;(&lt;/span&gt;&lt;span style=&quot;color:#4e96d8;&quot;&gt;15&lt;/span&gt;&lt;span style=&quot;color:#dfdfdf;font-weight:bold;&quot;&gt;)&lt;/span&gt;&lt;/p&gt;&lt;p style=&quot;margin:0;&quot;&gt;&lt;span style=&quot;color:#dfdfdf;&quot;&gt;    &lt;/span&gt;&lt;span style=&quot;color:#dfdfdf;font-weight:bold;&quot;&gt;},&lt;/span&gt;&lt;/p&gt;&lt;p style=&quot;margin:0;&quot;&gt;&lt;span style=&quot;color:#dfdfdf;&quot;&gt;    &lt;/span&gt;&lt;span style=&quot;color:#55aa40;&quot;&gt;&quot;startTime&quot;&lt;/span&gt;&lt;span style=&quot;color:#dfdfdf;&quot;&gt; &lt;/span&gt;&lt;span style=&quot;color:#dfdfdf;font-weight:bold;&quot;&gt;:&lt;/span&gt;&lt;span style=&quot;color:#dfdfdf;&quot;&gt; &lt;/span&gt;&lt;span style=&quot;color:#55aa40;&quot;&gt;&quot;1720700396513&quot;&lt;/span&gt;&lt;span style=&quot;color:#dfdfdf;font-weight:bold;&quot;&gt;,&lt;/span&gt;&lt;/p&gt;&lt;p style=&quot;margin:0;&quot;&gt;&lt;span style=&quot;color:#dfdfdf;&quot;&gt;    &lt;/span&gt;&lt;span style=&quot;color:#55aa40;&quot;&gt;&quot;endTime&quot;&lt;/span&gt;&lt;span style=&quot;color:#dfdfdf;&quot;&gt; &lt;/span&gt;&lt;span style=&quot;color:#dfdfdf;font-weight:bold;&quot;&gt;:&lt;/span&gt;&lt;span style=&quot;color:#dfdfdf;&quot;&gt; &lt;/span&gt;&lt;span style=&quot;color:#55aa40;&quot;&gt;&quot;1720705853630&quot;&lt;/span&gt;&lt;span style=&quot;color:#dfdfdf;font-weight:bold;&quot;&gt;,&lt;/span&gt;&lt;/p&gt;&lt;p style=&quot;margin:0;&quot;&gt;&lt;span style=&quot;color:#dfdfdf;&quot;&gt;    &lt;/span&gt;&lt;span style=&quot;color:#55aa40;&quot;&gt;&quot;totalPrice&quot;&lt;/span&gt;&lt;span style=&quot;color:#dfdfdf;&quot;&gt; &lt;/span&gt;&lt;span style=&quot;color:#dfdfdf;font-weight:bold;&quot;&gt;:&lt;/span&gt;&lt;span style=&quot;color:#dfdfdf;&quot;&gt; NumberInt&lt;/span&gt;&lt;span style=&quot;color:#dfdfdf;font-weight:bold;&quot;&gt;(&lt;/span&gt;&lt;span style=&quot;color:#4e96d8;&quot;&gt;0&lt;/span&gt;&lt;span style=&quot;color:#dfdfdf;font-weight:bold;&quot;&gt;),&lt;/span&gt;&lt;/p&gt;&lt;p style=&quot;margin:0;&quot;&gt;&lt;span style=&quot;color:#dfdfdf;&quot;&gt;    &lt;/span&gt;&lt;span style=&quot;color:#55aa40;&quot;&gt;&quot;action&quot;&lt;/span&gt;&lt;span style=&quot;color:#dfdfdf;&quot;&gt; &lt;/span&gt;&lt;span style=&quot;color:#dfdfdf;font-weight:bold;&quot;&gt;:&lt;/span&gt;&lt;span style=&quot;color:#dfdfdf;&quot;&gt; &lt;/span&gt;&lt;span style=&quot;color:#dfdfdf;font-weight:bold;&quot;&gt;{&lt;/span&gt;&lt;/p&gt;&lt;p style=&quot;margin:0;&quot;&gt;&lt;span style=&quot;color:#dfdfdf;&quot;&gt;        &lt;/span&gt;&lt;span style=&quot;color:#55aa40;&quot;&gt;&quot;in&quot;&lt;/span&gt;&lt;span style=&quot;color:#dfdfdf;&quot;&gt; &lt;/span&gt;&lt;span style=&quot;color:#dfdfdf;font-weight:bold;&quot;&gt;:&lt;/span&gt;&lt;span style=&quot;color:#dfdfdf;&quot;&gt; &lt;/span&gt;&lt;span style=&quot;color:#f255b3;&quot;&gt;true&lt;/span&gt;&lt;span style=&quot;color:#dfdfdf;font-weight:bold;&quot;&gt;,&lt;/span&gt;&lt;/p&gt;&lt;p style=&quot;margin:0;&quot;&gt;&lt;span style=&quot;color:#dfdfdf;&quot;&gt;        &lt;/span&gt;&lt;span style=&quot;color:#55aa40;&quot;&gt;&quot;out&quot;&lt;/span&gt;&lt;span style=&quot;color:#dfdfdf;&quot;&gt; &lt;/span&gt;&lt;span style=&quot;color:#dfdfdf;font-weight:bold;&quot;&gt;:&lt;/span&gt;&lt;span style=&quot;color:#dfdfdf;&quot;&gt; &lt;/span&gt;&lt;span style=&quot;color:#f255b3;&quot;&gt;true&lt;/span&gt;&lt;/p&gt;&lt;p style=&quot;margin:0;&quot;&gt;&lt;span style=&quot;color:#dfdfdf;&quot;&gt;    &lt;/span&gt;&lt;span style=&quot;color:#dfdfdf;font-weight:bold;&quot;&gt;},&lt;/span&gt;&lt;/p&gt;&lt;p style=&quot;margin:0;&quot;&gt;&lt;span style=&quot;color:#dfdfdf;&quot;&gt;    &lt;/span&gt;&lt;span style=&quot;color:#55aa40;&quot;&gt;&quot;canceled&quot;&lt;/span&gt;&lt;span style=&quot;color:#dfdfdf;&quot;&gt; &lt;/span&gt;&lt;span style=&quot;color:#dfdfdf;font-weight:bold;&quot;&gt;:&lt;/span&gt;&lt;span style=&quot;color:#dfdfdf;&quot;&gt; &lt;/span&gt;&lt;span style=&quot;color:#f255b3;&quot;&gt;false&lt;/span&gt;&lt;span style=&quot;color:#dfdfdf;font-weight:bold;&quot;&gt;,&lt;/span&gt;&lt;/p&gt;&lt;p style=&quot;margin:0;&quot;&gt;&lt;span style=&quot;color:#dfdfdf;&quot;&gt;    &lt;/span&gt;&lt;span style=&quot;color:#55aa40;&quot;&gt;&quot;__v&quot;&lt;/span&gt;&lt;span style=&quot;color:#dfdfdf;&quot;&gt; &lt;/span&gt;&lt;span style=&quot;color:#dfdfdf;font-weight:bold;&quot;&gt;:&lt;/span&gt;&lt;span style=&quot;color:#dfdfdf;&quot;&gt; NumberInt&lt;/span&gt;&lt;span style=&quot;color:#dfdfdf;font-weight:bold;&quot;&gt;(&lt;/span&gt;&lt;span style=&quot;color:#4e96d8;&quot;&gt;0&lt;/span&gt;&lt;span style=&quot;color:#dfdfdf;font-weight:bold;&quot;&gt;),&lt;/span&gt;&lt;/p&gt;&lt;p style=&quot;margin:0;&quot;&gt;&lt;span style=&quot;color:#dfdfdf;&quot;&gt;    &lt;/span&gt;&lt;span style=&quot;color:#55aa40;&quot;&gt;&quot;totalCost&quot;&lt;/span&gt;&lt;span style=&quot;color:#dfdfdf;&quot;&gt; &lt;/span&gt;&lt;span style=&quot;color:#dfdfdf;font-weight:bold;&quot;&gt;:&lt;/span&gt;&lt;span style=&quot;color:#dfdfdf;&quot;&gt; &lt;/span&gt;&lt;span style=&quot;color:#4e96d8;&quot;&gt;50&lt;/span&gt;&lt;span style=&quot;color:#dfdfdf;&quot;&gt;.&lt;/span&gt;&lt;span style=&quot;color:#4e96d8;&quot;&gt;634633333333326&lt;/span&gt;&lt;span style=&quot;color:#dfdfdf;font-weight:bold;&quot;&gt;,&lt;/span&gt;&lt;/p&gt;&lt;p style=&quot;margin:0;&quot;&gt;&lt;span style=&quot;color:#dfdfdf;&quot;&gt;    &lt;/span&gt;&lt;span style=&quot;color:#55aa40;&quot;&gt;&quot;totaltimeUsingMinute&quot;&lt;/span&gt;&lt;span style=&quot;color:#dfdfdf;&quot;&gt; &lt;/span&gt;&lt;span style=&quot;color:#dfdfdf;font-weight:bold;&quot;&gt;:&lt;/span&gt;&lt;span style=&quot;color:#dfdfdf;&quot;&gt; &lt;/span&gt;&lt;span style=&quot;color:#4e96d8;&quot;&gt;75&lt;/span&gt;&lt;span style=&quot;color:#dfdfdf;&quot;&gt;.&lt;/span&gt;&lt;span style=&quot;color:#4e96d8;&quot;&gt;95195&lt;/span&gt;&lt;/p&gt;&lt;p style=&quot;background-color:#49473f;margin:0;&quot;&gt;&lt;span style=&quot;color:#dfdfdf;font-weight:bold;&quot;&gt;}&lt;/span&gt;&lt;/p&gt;&lt;/div&gt;&lt;/div&gt;" style="text;whiteSpace=wrap;html=1;" parent="WIyWlLk6GJQsqaUBKTNV-1" vertex="1">
          <mxGeometry x="119.86000000000001" y="405" width="560" height="680" as="geometry" />
        </mxCell>
        <mxCell id="PcZrBQODwfO-kjVytySW-5" value="&lt;span style=&quot;background-color:#292929;padding:0px 0px 0px 2px;&quot;&gt;&lt;span style=&quot;color:#d7d7d7;background-color:#292929;font-family:&amp;quot;Menlo&amp;quot;;font-size:12pt;white-space:pre;&quot;&gt;&lt;span style=&quot;color:#55aa40;&quot;&gt;locations Building&lt;/span&gt;&lt;/span&gt;&lt;/span&gt;" style="text;whiteSpace=wrap;html=1;" parent="WIyWlLk6GJQsqaUBKTNV-1" vertex="1">
          <mxGeometry x="1379.8600000000001" y="365" width="120" height="40" as="geometry" />
        </mxCell>
        <mxCell id="cmKbnbtMbDPx5OScDKNm-25" style="edgeStyle=orthogonalEdgeStyle;rounded=0;orthogonalLoop=1;jettySize=auto;html=1;exitX=1;exitY=0.25;exitDx=0;exitDy=0;entryX=0.785;entryY=0.533;entryDx=0;entryDy=0;entryPerimeter=0;endArrow=none;endFill=0;" edge="1" parent="WIyWlLk6GJQsqaUBKTNV-1" source="PcZrBQODwfO-kjVytySW-6" target="PcZrBQODwfO-kjVytySW-8">
          <mxGeometry relative="1" as="geometry">
            <Array as="points">
              <mxPoint x="1990" y="425" />
              <mxPoint x="1990" y="690" />
            </Array>
          </mxGeometry>
        </mxCell>
        <mxCell id="PcZrBQODwfO-kjVytySW-6" value="&lt;div style=&quot;background-color:#292929;padding:0px 0px 0px 2px;&quot;&gt;&lt;div style=&quot;color:#d7d7d7;background-color:#292929;font-family:&amp;quot;Menlo&amp;quot;;font-size:12pt;white-space:pre;&quot;&gt;&lt;p style=&quot;margin:0;&quot;&gt;&lt;span style=&quot;color:#dfdfdf;background-color:#35689b;font-weight:bold;&quot;&gt;{&lt;/span&gt;&lt;/p&gt;&lt;p style=&quot;margin:0;&quot;&gt;&lt;span style=&quot;color:#dfdfdf;&quot;&gt;    &lt;/span&gt;&lt;span style=&quot;color:#55aa40;&quot;&gt;&quot;_id&quot;&lt;/span&gt;&lt;span style=&quot;color:#dfdfdf;&quot;&gt; &lt;/span&gt;&lt;span style=&quot;color:#dfdfdf;font-weight:bold;&quot;&gt;:&lt;/span&gt;&lt;span style=&quot;color:#dfdfdf;&quot;&gt; ObjectId&lt;/span&gt;&lt;span style=&quot;color:#dfdfdf;font-weight:bold;&quot;&gt;(&lt;/span&gt;&lt;span style=&quot;color:#55aa40;&quot;&gt;&quot;668ec9921567b18c176488fe&quot;&lt;/span&gt;&lt;span style=&quot;color:#dfdfdf;font-weight:bold;&quot;&gt;),&lt;/span&gt;&lt;/p&gt;&lt;p style=&quot;margin:0;&quot;&gt;&lt;span style=&quot;color:#dfdfdf;&quot;&gt;    &lt;/span&gt;&lt;span style=&quot;color:#55aa40;&quot;&gt;&quot;name&quot;&lt;/span&gt;&lt;span style=&quot;color:#dfdfdf;&quot;&gt; &lt;/span&gt;&lt;span style=&quot;color:#dfdfdf;font-weight:bold;&quot;&gt;:&lt;/span&gt;&lt;span style=&quot;color:#dfdfdf;&quot;&gt; &lt;/span&gt;&lt;span style=&quot;color:#55aa40;&quot;&gt;&quot;building-01&quot;&lt;/span&gt;&lt;span style=&quot;color:#dfdfdf;font-weight:bold;&quot;&gt;,&lt;/span&gt;&lt;/p&gt;&lt;p style=&quot;margin:0;&quot;&gt;&lt;span style=&quot;color:#dfdfdf;&quot;&gt;    &lt;/span&gt;&lt;span style=&quot;color:#55aa40;&quot;&gt;&quot;type&quot;&lt;/span&gt;&lt;span style=&quot;color:#dfdfdf;&quot;&gt; &lt;/span&gt;&lt;span style=&quot;color:#dfdfdf;font-weight:bold;&quot;&gt;:&lt;/span&gt;&lt;span style=&quot;color:#dfdfdf;&quot;&gt; &lt;/span&gt;&lt;span style=&quot;color:#55aa40;&quot;&gt;&quot;building&quot;&lt;/span&gt;&lt;span style=&quot;color:#dfdfdf;font-weight:bold;&quot;&gt;,&lt;/span&gt;&lt;/p&gt;&lt;p style=&quot;margin:0;&quot;&gt;&lt;span style=&quot;color:#dfdfdf;&quot;&gt;    &lt;/span&gt;&lt;span style=&quot;color:#55aa40;&quot;&gt;&quot;createdAt&quot;&lt;/span&gt;&lt;span style=&quot;color:#dfdfdf;&quot;&gt; &lt;/span&gt;&lt;span style=&quot;color:#dfdfdf;font-weight:bold;&quot;&gt;:&lt;/span&gt;&lt;span style=&quot;color:#dfdfdf;&quot;&gt; ISODate&lt;/span&gt;&lt;span style=&quot;color:#dfdfdf;font-weight:bold;&quot;&gt;(&lt;/span&gt;&lt;span style=&quot;color:#55aa40;&quot;&gt;&quot;2024-07-10T17:49:06.693+0000&quot;&lt;/span&gt;&lt;span style=&quot;color:#dfdfdf;font-weight:bold;&quot;&gt;),&lt;/span&gt;&lt;/p&gt;&lt;p style=&quot;margin:0;&quot;&gt;&lt;span style=&quot;color:#dfdfdf;&quot;&gt;    &lt;/span&gt;&lt;span style=&quot;color:#55aa40;&quot;&gt;&quot;__v&quot;&lt;/span&gt;&lt;span style=&quot;color:#dfdfdf;&quot;&gt; &lt;/span&gt;&lt;span style=&quot;color:#dfdfdf;font-weight:bold;&quot;&gt;:&lt;/span&gt;&lt;span style=&quot;color:#dfdfdf;&quot;&gt; NumberInt&lt;/span&gt;&lt;span style=&quot;color:#dfdfdf;font-weight:bold;&quot;&gt;(&lt;/span&gt;&lt;span style=&quot;color:#4e96d8;&quot;&gt;0&lt;/span&gt;&lt;span style=&quot;color:#dfdfdf;font-weight:bold;&quot;&gt;)&lt;/span&gt;&lt;/p&gt;&lt;p style=&quot;background-color:#49473f;margin:0;&quot;&gt;&lt;span style=&quot;color:#dfdfdf;background-color:#35689b;font-weight:bold;&quot;&gt;}&lt;/span&gt;&lt;/p&gt;&lt;/div&gt;&lt;/div&gt;" style="text;whiteSpace=wrap;html=1;" parent="WIyWlLk6GJQsqaUBKTNV-1" vertex="1">
          <mxGeometry x="1379.8600000000001" y="385" width="560" height="160" as="geometry" />
        </mxCell>
        <mxCell id="cmKbnbtMbDPx5OScDKNm-28" style="edgeStyle=orthogonalEdgeStyle;rounded=0;orthogonalLoop=1;jettySize=auto;html=1;exitX=0.922;exitY=0.2;exitDx=0;exitDy=0;entryX=0.804;entryY=0.528;entryDx=0;entryDy=0;exitPerimeter=0;entryPerimeter=0;" edge="1" parent="WIyWlLk6GJQsqaUBKTNV-1" source="PcZrBQODwfO-kjVytySW-8" target="PcZrBQODwfO-kjVytySW-11">
          <mxGeometry relative="1" as="geometry">
            <Array as="points">
              <mxPoint x="1960" y="630" />
              <mxPoint x="1960" y="915" />
              <mxPoint x="1790" y="915" />
            </Array>
          </mxGeometry>
        </mxCell>
        <mxCell id="PcZrBQODwfO-kjVytySW-8" value="&lt;div style=&quot;background-color:#292929;padding:0px 0px 0px 2px;&quot;&gt;&lt;div style=&quot;color:#d7d7d7;background-color:#292929;font-family:&amp;quot;Menlo&amp;quot;;font-size:12pt;white-space:pre;&quot;&gt;&lt;p style=&quot;margin:0;&quot;&gt;&lt;span style=&quot;color:#dfdfdf;background-color:#35689b;font-weight:bold;&quot;&gt;{&lt;/span&gt;&lt;/p&gt;&lt;p style=&quot;margin:0;&quot;&gt;&lt;span style=&quot;color:#dfdfdf;&quot;&gt;    &lt;/span&gt;&lt;span style=&quot;color:#55aa40;&quot;&gt;&quot;_id&quot;&lt;/span&gt;&lt;span style=&quot;color:#dfdfdf;&quot;&gt; &lt;/span&gt;&lt;span style=&quot;color:#dfdfdf;font-weight:bold;&quot;&gt;:&lt;/span&gt;&lt;span style=&quot;color:#dfdfdf;&quot;&gt; ObjectId&lt;/span&gt;&lt;span style=&quot;color:#dfdfdf;font-weight:bold;&quot;&gt;(&lt;/span&gt;&lt;span style=&quot;color:#55aa40;&quot;&gt;&quot;668ec9e6df58a2185c2ef73f&quot;&lt;/span&gt;&lt;span style=&quot;color:#dfdfdf;font-weight:bold;&quot;&gt;),&lt;/span&gt;&lt;/p&gt;&lt;p style=&quot;margin:0;&quot;&gt;&lt;span style=&quot;color:#dfdfdf;&quot;&gt;    &lt;/span&gt;&lt;span style=&quot;color:#55aa40;&quot;&gt;&quot;name&quot;&lt;/span&gt;&lt;span style=&quot;color:#dfdfdf;&quot;&gt; &lt;/span&gt;&lt;span style=&quot;color:#dfdfdf;font-weight:bold;&quot;&gt;:&lt;/span&gt;&lt;span style=&quot;color:#dfdfdf;&quot;&gt; &lt;/span&gt;&lt;span style=&quot;color:#55aa40;&quot;&gt;&quot;floor-01&quot;&lt;/span&gt;&lt;span style=&quot;color:#dfdfdf;font-weight:bold;&quot;&gt;,&lt;/span&gt;&lt;/p&gt;&lt;p style=&quot;margin:0;&quot;&gt;&lt;span style=&quot;color:#dfdfdf;&quot;&gt;    &lt;/span&gt;&lt;span style=&quot;color:#55aa40;&quot;&gt;&quot;type&quot;&lt;/span&gt;&lt;span style=&quot;color:#dfdfdf;&quot;&gt; &lt;/span&gt;&lt;span style=&quot;color:#dfdfdf;font-weight:bold;&quot;&gt;:&lt;/span&gt;&lt;span style=&quot;color:#dfdfdf;&quot;&gt; &lt;/span&gt;&lt;span style=&quot;color:#55aa40;&quot;&gt;&quot;floor&quot;&lt;/span&gt;&lt;span style=&quot;color:#dfdfdf;font-weight:bold;&quot;&gt;,&lt;/span&gt;&lt;/p&gt;&lt;p style=&quot;margin:0;&quot;&gt;&lt;span style=&quot;color:#dfdfdf;&quot;&gt;    &lt;/span&gt;&lt;span style=&quot;color:#55aa40;&quot;&gt;&quot;refer&quot;&lt;/span&gt;&lt;span style=&quot;color:#dfdfdf;&quot;&gt; &lt;/span&gt;&lt;span style=&quot;color:#dfdfdf;font-weight:bold;&quot;&gt;:&lt;/span&gt;&lt;span style=&quot;color:#dfdfdf;&quot;&gt; &lt;/span&gt;&lt;span style=&quot;color:#55aa40;&quot;&gt;&quot;668ec9921567b18c176488fe&quot;&lt;/span&gt;&lt;span style=&quot;color:#dfdfdf;font-weight:bold;&quot;&gt;,&lt;/span&gt;&lt;/p&gt;&lt;p style=&quot;margin:0;&quot;&gt;&lt;span style=&quot;color:#dfdfdf;&quot;&gt;    &lt;/span&gt;&lt;span style=&quot;color:#55aa40;&quot;&gt;&quot;createdAt&quot;&lt;/span&gt;&lt;span style=&quot;color:#dfdfdf;&quot;&gt; &lt;/span&gt;&lt;span style=&quot;color:#dfdfdf;font-weight:bold;&quot;&gt;:&lt;/span&gt;&lt;span style=&quot;color:#dfdfdf;&quot;&gt; &lt;/span&gt;&lt;span style=&quot;color:#55aa40;&quot;&gt;&quot;1720633830235&quot;&lt;/span&gt;&lt;span style=&quot;color:#dfdfdf;font-weight:bold;&quot;&gt;,&lt;/span&gt;&lt;/p&gt;&lt;p style=&quot;margin:0;&quot;&gt;&lt;span style=&quot;color:#dfdfdf;&quot;&gt;    &lt;/span&gt;&lt;span style=&quot;color:#55aa40;&quot;&gt;&quot;__v&quot;&lt;/span&gt;&lt;span style=&quot;color:#dfdfdf;&quot;&gt; &lt;/span&gt;&lt;span style=&quot;color:#dfdfdf;font-weight:bold;&quot;&gt;:&lt;/span&gt;&lt;span style=&quot;color:#dfdfdf;&quot;&gt; NumberInt&lt;/span&gt;&lt;span style=&quot;color:#dfdfdf;font-weight:bold;&quot;&gt;(&lt;/span&gt;&lt;span style=&quot;color:#4e96d8;&quot;&gt;0&lt;/span&gt;&lt;span style=&quot;color:#dfdfdf;font-weight:bold;&quot;&gt;)&lt;/span&gt;&lt;/p&gt;&lt;p style=&quot;background-color:#49473f;margin:0;&quot;&gt;&lt;span style=&quot;color:#dfdfdf;background-color:#35689b;font-weight:bold;&quot;&gt;}&lt;/span&gt;&lt;/p&gt;&lt;/div&gt;&lt;/div&gt;" style="text;whiteSpace=wrap;html=1;" parent="WIyWlLk6GJQsqaUBKTNV-1" vertex="1">
          <mxGeometry x="1379.8600000000001" y="594" width="510" height="180" as="geometry" />
        </mxCell>
        <mxCell id="PcZrBQODwfO-kjVytySW-9" value="&lt;span style=&quot;background-color:#292929;padding:0px 0px 0px 2px;&quot;&gt;&lt;span style=&quot;color:#d7d7d7;background-color:#292929;font-family:&amp;quot;Menlo&amp;quot;;font-size:12pt;white-space:pre;&quot;&gt;&lt;span style=&quot;color:#55aa40;&quot;&gt;locations Floor&lt;/span&gt;&lt;/span&gt;&lt;/span&gt;" style="text;whiteSpace=wrap;html=1;" parent="WIyWlLk6GJQsqaUBKTNV-1" vertex="1">
          <mxGeometry x="1379.8600000000001" y="565" width="120" height="40" as="geometry" />
        </mxCell>
        <mxCell id="PcZrBQODwfO-kjVytySW-10" value="&lt;span style=&quot;background-color:#292929;padding:0px 0px 0px 2px;&quot;&gt;&lt;span style=&quot;color:#d7d7d7;background-color:#292929;font-family:&amp;quot;Menlo&amp;quot;;font-size:12pt;white-space:pre;&quot;&gt;&lt;span style=&quot;color:#55aa40;&quot;&gt;locations zone&lt;/span&gt;&lt;/span&gt;&lt;/span&gt;" style="text;whiteSpace=wrap;html=1;" parent="WIyWlLk6GJQsqaUBKTNV-1" vertex="1">
          <mxGeometry x="1379.8600000000001" y="795" width="120" height="40" as="geometry" />
        </mxCell>
        <mxCell id="PcZrBQODwfO-kjVytySW-11" value="&lt;div style=&quot;background-color:#292929;padding:0px 0px 0px 2px;&quot;&gt;&lt;div style=&quot;color:#d7d7d7;background-color:#292929;font-family:&amp;quot;Menlo&amp;quot;;font-size:12pt;white-space:pre;&quot;&gt;&lt;p style=&quot;margin:0;&quot;&gt;&lt;span style=&quot;color:#dfdfdf;background-color:#35689b;font-weight:bold;&quot;&gt;{&lt;/span&gt;&lt;/p&gt;&lt;p style=&quot;margin:0;&quot;&gt;&lt;span style=&quot;color:#dfdfdf;&quot;&gt;    &lt;/span&gt;&lt;span style=&quot;color:#55aa40;&quot;&gt;&quot;_id&quot;&lt;/span&gt;&lt;span style=&quot;color:#dfdfdf;&quot;&gt; &lt;/span&gt;&lt;span style=&quot;color:#dfdfdf;font-weight:bold;&quot;&gt;:&lt;/span&gt;&lt;span style=&quot;color:#dfdfdf;&quot;&gt; ObjectId&lt;/span&gt;&lt;span style=&quot;color:#dfdfdf;font-weight:bold;&quot;&gt;(&lt;/span&gt;&lt;span style=&quot;color:#55aa40;&quot;&gt;&quot;668ec9f5df58a2185c2ef742&quot;&lt;/span&gt;&lt;span style=&quot;color:#dfdfdf;font-weight:bold;&quot;&gt;),&lt;/span&gt;&lt;/p&gt;&lt;p style=&quot;margin:0;&quot;&gt;&lt;span style=&quot;color:#dfdfdf;&quot;&gt;    &lt;/span&gt;&lt;span style=&quot;color:#55aa40;&quot;&gt;&quot;name&quot;&lt;/span&gt;&lt;span style=&quot;color:#dfdfdf;&quot;&gt; &lt;/span&gt;&lt;span style=&quot;color:#dfdfdf;font-weight:bold;&quot;&gt;:&lt;/span&gt;&lt;span style=&quot;color:#dfdfdf;&quot;&gt; &lt;/span&gt;&lt;span style=&quot;color:#55aa40;&quot;&gt;&quot;zone-01&quot;&lt;/span&gt;&lt;span style=&quot;color:#dfdfdf;font-weight:bold;&quot;&gt;,&lt;/span&gt;&lt;/p&gt;&lt;p style=&quot;margin:0;&quot;&gt;&lt;span style=&quot;color:#dfdfdf;&quot;&gt;    &lt;/span&gt;&lt;span style=&quot;color:#55aa40;&quot;&gt;&quot;type&quot;&lt;/span&gt;&lt;span style=&quot;color:#dfdfdf;&quot;&gt; &lt;/span&gt;&lt;span style=&quot;color:#dfdfdf;font-weight:bold;&quot;&gt;:&lt;/span&gt;&lt;span style=&quot;color:#dfdfdf;&quot;&gt; &lt;/span&gt;&lt;span style=&quot;color:#55aa40;&quot;&gt;&quot;zone&quot;&lt;/span&gt;&lt;span style=&quot;color:#dfdfdf;font-weight:bold;&quot;&gt;,&lt;/span&gt;&lt;/p&gt;&lt;p style=&quot;margin:0;&quot;&gt;&lt;span style=&quot;color:#dfdfdf;&quot;&gt;    &lt;/span&gt;&lt;span style=&quot;color:#55aa40;&quot;&gt;&quot;refer&quot;&lt;/span&gt;&lt;span style=&quot;color:#dfdfdf;&quot;&gt; &lt;/span&gt;&lt;span style=&quot;color:#dfdfdf;font-weight:bold;&quot;&gt;:&lt;/span&gt;&lt;span style=&quot;color:#dfdfdf;&quot;&gt; &lt;/span&gt;&lt;span style=&quot;color:#55aa40;&quot;&gt;&quot;668ec9e6df58a2185c2ef73f&quot;&lt;/span&gt;&lt;span style=&quot;color:#dfdfdf;font-weight:bold;&quot;&gt;,&lt;/span&gt;&lt;/p&gt;&lt;p style=&quot;margin:0;&quot;&gt;&lt;span style=&quot;color:#dfdfdf;&quot;&gt;    &lt;/span&gt;&lt;span style=&quot;color:#55aa40;&quot;&gt;&quot;createdAt&quot;&lt;/span&gt;&lt;span style=&quot;color:#dfdfdf;&quot;&gt; &lt;/span&gt;&lt;span style=&quot;color:#dfdfdf;font-weight:bold;&quot;&gt;:&lt;/span&gt;&lt;span style=&quot;color:#dfdfdf;&quot;&gt; &lt;/span&gt;&lt;span style=&quot;color:#55aa40;&quot;&gt;&quot;1720633845635&quot;&lt;/span&gt;&lt;span style=&quot;color:#dfdfdf;font-weight:bold;&quot;&gt;,&lt;/span&gt;&lt;/p&gt;&lt;p style=&quot;margin:0;&quot;&gt;&lt;span style=&quot;color:#dfdfdf;&quot;&gt;    &lt;/span&gt;&lt;span style=&quot;color:#55aa40;&quot;&gt;&quot;__v&quot;&lt;/span&gt;&lt;span style=&quot;color:#dfdfdf;&quot;&gt; &lt;/span&gt;&lt;span style=&quot;color:#dfdfdf;font-weight:bold;&quot;&gt;:&lt;/span&gt;&lt;span style=&quot;color:#dfdfdf;&quot;&gt; NumberInt&lt;/span&gt;&lt;span style=&quot;color:#dfdfdf;font-weight:bold;&quot;&gt;(&lt;/span&gt;&lt;span style=&quot;color:#4e96d8;&quot;&gt;0&lt;/span&gt;&lt;span style=&quot;color:#dfdfdf;font-weight:bold;&quot;&gt;)&lt;/span&gt;&lt;/p&gt;&lt;p style=&quot;background-color:#49473f;margin:0;&quot;&gt;&lt;span style=&quot;color:#dfdfdf;background-color:#35689b;font-weight:bold;&quot;&gt;}&lt;/span&gt;&lt;/p&gt;&lt;/div&gt;&lt;/div&gt;" style="text;whiteSpace=wrap;html=1;" parent="WIyWlLk6GJQsqaUBKTNV-1" vertex="1">
          <mxGeometry x="1379.8600000000001" y="825" width="510" height="180" as="geometry" />
        </mxCell>
        <mxCell id="PcZrBQODwfO-kjVytySW-12" value="&lt;span style=&quot;background-color:#292929;padding:0px 0px 0px 2px;&quot;&gt;&lt;span style=&quot;color:#d7d7d7;background-color:#292929;font-family:&amp;quot;Menlo&amp;quot;;font-size:12pt;white-space:pre;&quot;&gt;&lt;span style=&quot;color:#55aa40;&quot;&gt;parkingpackages&lt;/span&gt;&lt;/span&gt;&lt;/span&gt;" style="text;whiteSpace=wrap;html=1;" parent="WIyWlLk6GJQsqaUBKTNV-1" vertex="1">
          <mxGeometry x="749.86" y="795" width="180" height="40" as="geometry" />
        </mxCell>
        <mxCell id="PcZrBQODwfO-kjVytySW-13" value="&lt;div style=&quot;background-color:#292929;padding:0px 0px 0px 2px;&quot;&gt;&lt;div style=&quot;color:#d7d7d7;background-color:#292929;font-family:&amp;quot;Menlo&amp;quot;;font-size:12pt;white-space:pre;&quot;&gt;&lt;p style=&quot;margin:0;&quot;&gt;&lt;span style=&quot;color:#dfdfdf;background-color:#35689b;font-weight:bold;&quot;&gt;{&lt;/span&gt;&lt;/p&gt;&lt;p style=&quot;margin:0;&quot;&gt;&lt;span style=&quot;color:#dfdfdf;&quot;&gt;    &lt;/span&gt;&lt;span style=&quot;color:#55aa40;&quot;&gt;&quot;_id&quot;&lt;/span&gt;&lt;span style=&quot;color:#dfdfdf;&quot;&gt; &lt;/span&gt;&lt;span style=&quot;color:#dfdfdf;font-weight:bold;&quot;&gt;:&lt;/span&gt;&lt;span style=&quot;color:#dfdfdf;&quot;&gt; ObjectId&lt;/span&gt;&lt;span style=&quot;color:#dfdfdf;font-weight:bold;&quot;&gt;(&lt;/span&gt;&lt;span style=&quot;color:#55aa40;&quot;&gt;&quot;668f8ff6bf8a587bb1f33d04&quot;&lt;/span&gt;&lt;span style=&quot;color:#dfdfdf;font-weight:bold;&quot;&gt;),&lt;/span&gt;&lt;/p&gt;&lt;p style=&quot;margin:0;&quot;&gt;&lt;span style=&quot;color:#dfdfdf;&quot;&gt;    &lt;/span&gt;&lt;span style=&quot;color:#55aa40;&quot;&gt;&quot;name&quot;&lt;/span&gt;&lt;span style=&quot;color:#dfdfdf;&quot;&gt; &lt;/span&gt;&lt;span style=&quot;color:#dfdfdf;font-weight:bold;&quot;&gt;:&lt;/span&gt;&lt;span style=&quot;color:#dfdfdf;&quot;&gt; &lt;/span&gt;&lt;span style=&quot;color:#55aa40;&quot;&gt;&quot;package-001&quot;&lt;/span&gt;&lt;span style=&quot;color:#dfdfdf;font-weight:bold;&quot;&gt;,&lt;/span&gt;&lt;/p&gt;&lt;p style=&quot;margin:0;&quot;&gt;&lt;span style=&quot;color:#dfdfdf;&quot;&gt;    &lt;/span&gt;&lt;span style=&quot;color:#55aa40;&quot;&gt;&quot;pricePerHour&quot;&lt;/span&gt;&lt;span style=&quot;color:#dfdfdf;&quot;&gt; &lt;/span&gt;&lt;span style=&quot;color:#dfdfdf;font-weight:bold;&quot;&gt;:&lt;/span&gt;&lt;span style=&quot;color:#dfdfdf;&quot;&gt; NumberInt&lt;/span&gt;&lt;span style=&quot;color:#dfdfdf;font-weight:bold;&quot;&gt;(&lt;/span&gt;&lt;span style=&quot;color:#4e96d8;&quot;&gt;40&lt;/span&gt;&lt;span style=&quot;color:#dfdfdf;font-weight:bold;&quot;&gt;),&lt;/span&gt;&lt;/p&gt;&lt;p style=&quot;margin:0;&quot;&gt;&lt;span style=&quot;color:#dfdfdf;&quot;&gt;    &lt;/span&gt;&lt;span style=&quot;color:#55aa40;&quot;&gt;&quot;freeParkingMinute&quot;&lt;/span&gt;&lt;span style=&quot;color:#dfdfdf;&quot;&gt; &lt;/span&gt;&lt;span style=&quot;color:#dfdfdf;font-weight:bold;&quot;&gt;:&lt;/span&gt;&lt;span style=&quot;color:#dfdfdf;&quot;&gt; NumberInt&lt;/span&gt;&lt;span style=&quot;color:#dfdfdf;font-weight:bold;&quot;&gt;(&lt;/span&gt;&lt;span style=&quot;color:#4e96d8;&quot;&gt;15&lt;/span&gt;&lt;span style=&quot;color:#dfdfdf;font-weight:bold;&quot;&gt;),&lt;/span&gt;&lt;/p&gt;&lt;p style=&quot;margin:0;&quot;&gt;&lt;span style=&quot;color:#dfdfdf;&quot;&gt;    &lt;/span&gt;&lt;span style=&quot;color:#55aa40;&quot;&gt;&quot;colorCode&quot;&lt;/span&gt;&lt;span style=&quot;color:#dfdfdf;&quot;&gt; &lt;/span&gt;&lt;span style=&quot;color:#dfdfdf;font-weight:bold;&quot;&gt;:&lt;/span&gt;&lt;span style=&quot;color:#dfdfdf;&quot;&gt; &lt;/span&gt;&lt;span style=&quot;color:#55aa40;&quot;&gt;&quot;#90ee90&quot;&lt;/span&gt;&lt;span style=&quot;color:#dfdfdf;font-weight:bold;&quot;&gt;,&lt;/span&gt;&lt;/p&gt;&lt;p style=&quot;margin:0;&quot;&gt;&lt;span style=&quot;color:#dfdfdf;&quot;&gt;    &lt;/span&gt;&lt;span style=&quot;color:#55aa40;&quot;&gt;&quot;deleted&quot;&lt;/span&gt;&lt;span style=&quot;color:#dfdfdf;&quot;&gt; &lt;/span&gt;&lt;span style=&quot;color:#dfdfdf;font-weight:bold;&quot;&gt;:&lt;/span&gt;&lt;span style=&quot;color:#dfdfdf;&quot;&gt; &lt;/span&gt;&lt;span style=&quot;color:#f255b3;&quot;&gt;false&lt;/span&gt;&lt;span style=&quot;color:#dfdfdf;font-weight:bold;&quot;&gt;,&lt;/span&gt;&lt;/p&gt;&lt;p style=&quot;margin:0;&quot;&gt;&lt;span style=&quot;color:#dfdfdf;&quot;&gt;    &lt;/span&gt;&lt;span style=&quot;color:#55aa40;&quot;&gt;&quot;createdAt&quot;&lt;/span&gt;&lt;span style=&quot;color:#dfdfdf;&quot;&gt; &lt;/span&gt;&lt;span style=&quot;color:#dfdfdf;font-weight:bold;&quot;&gt;:&lt;/span&gt;&lt;span style=&quot;color:#dfdfdf;&quot;&gt; &lt;/span&gt;&lt;span style=&quot;color:#55aa40;&quot;&gt;&quot;1720684534069&quot;&lt;/span&gt;&lt;span style=&quot;color:#dfdfdf;font-weight:bold;&quot;&gt;,&lt;/span&gt;&lt;/p&gt;&lt;p style=&quot;margin:0;&quot;&gt;&lt;span style=&quot;color:#dfdfdf;&quot;&gt;    &lt;/span&gt;&lt;span style=&quot;color:#55aa40;&quot;&gt;&quot;__v&quot;&lt;/span&gt;&lt;span style=&quot;color:#dfdfdf;&quot;&gt; &lt;/span&gt;&lt;span style=&quot;color:#dfdfdf;font-weight:bold;&quot;&gt;:&lt;/span&gt;&lt;span style=&quot;color:#dfdfdf;&quot;&gt; NumberInt&lt;/span&gt;&lt;span style=&quot;color:#dfdfdf;font-weight:bold;&quot;&gt;(&lt;/span&gt;&lt;span style=&quot;color:#4e96d8;&quot;&gt;0&lt;/span&gt;&lt;span style=&quot;color:#dfdfdf;font-weight:bold;&quot;&gt;)&lt;/span&gt;&lt;/p&gt;&lt;p style=&quot;background-color:#49473f;margin:0;&quot;&gt;&lt;span style=&quot;color:#dfdfdf;background-color:#35689b;font-weight:bold;&quot;&gt;}&lt;/span&gt;&lt;/p&gt;&lt;/div&gt;&lt;/div&gt;" style="text;whiteSpace=wrap;html=1;" parent="WIyWlLk6GJQsqaUBKTNV-1" vertex="1">
          <mxGeometry x="749.86" y="825" width="510" height="220" as="geometry" />
        </mxCell>
        <mxCell id="PcZrBQODwfO-kjVytySW-16" value="" style="group" parent="WIyWlLk6GJQsqaUBKTNV-1" vertex="1" connectable="0">
          <mxGeometry x="739.86" y="375" width="520" height="355" as="geometry" />
        </mxCell>
        <mxCell id="PcZrBQODwfO-kjVytySW-14" value="&lt;span style=&quot;background-color:#292929;padding:0px 0px 0px 2px;&quot;&gt;&lt;span style=&quot;color:#d7d7d7;background-color:#292929;font-family:&amp;quot;Menlo&amp;quot;;font-size:12pt;white-space:pre;&quot;&gt;&lt;span style=&quot;color:#55aa40;&quot;&gt;parkings&lt;/span&gt;&lt;/span&gt;&lt;/span&gt;" style="text;whiteSpace=wrap;html=1;" parent="PcZrBQODwfO-kjVytySW-16" vertex="1">
          <mxGeometry width="110" height="40" as="geometry" />
        </mxCell>
        <mxCell id="cmKbnbtMbDPx5OScDKNm-7" value="&lt;div style=&quot;background-color:#292929;padding:0px 0px 0px 2px;&quot;&gt;&lt;div style=&quot;color:#d7d7d7;background-color:#292929;font-family:&amp;quot;Menlo&amp;quot;;font-size:12pt;white-space:pre;&quot;&gt;&lt;p style=&quot;margin:0;&quot;&gt;&lt;span style=&quot;color:#dfdfdf;background-color:#35689b;font-weight:bold;&quot;&gt;{&lt;/span&gt;&lt;/p&gt;&lt;p style=&quot;margin:0;&quot;&gt;&lt;span style=&quot;color:#dfdfdf;&quot;&gt;    &lt;/span&gt;&lt;span style=&quot;color:#55aa40;&quot;&gt;&quot;_id&quot;&lt;/span&gt;&lt;span style=&quot;color:#dfdfdf;&quot;&gt; &lt;/span&gt;&lt;span style=&quot;color:#dfdfdf;font-weight:bold;&quot;&gt;:&lt;/span&gt;&lt;span style=&quot;color:#dfdfdf;&quot;&gt; ObjectId&lt;/span&gt;&lt;span style=&quot;color:#dfdfdf;font-weight:bold;&quot;&gt;(&lt;/span&gt;&lt;span style=&quot;color:#55aa40;&quot;&gt;&quot;6690e20475fc2d86e9def80e&quot;&lt;/span&gt;&lt;span style=&quot;color:#dfdfdf;font-weight:bold;&quot;&gt;),&lt;/span&gt;&lt;/p&gt;&lt;p style=&quot;margin:0;&quot;&gt;&lt;span style=&quot;color:#dfdfdf;&quot;&gt;    &lt;/span&gt;&lt;span style=&quot;color:#55aa40;&quot;&gt;&quot;name&quot;&lt;/span&gt;&lt;span style=&quot;color:#dfdfdf;&quot;&gt; &lt;/span&gt;&lt;span style=&quot;color:#dfdfdf;font-weight:bold;&quot;&gt;:&lt;/span&gt;&lt;span style=&quot;color:#dfdfdf;&quot;&gt; &lt;/span&gt;&lt;span style=&quot;color:#55aa40;&quot;&gt;&quot;Park A03&quot;&lt;/span&gt;&lt;span style=&quot;color:#dfdfdf;font-weight:bold;&quot;&gt;,&lt;/span&gt;&lt;/p&gt;&lt;p style=&quot;margin:0;&quot;&gt;&lt;span style=&quot;color:#dfdfdf;&quot;&gt;    &lt;/span&gt;&lt;span style=&quot;color:#55aa40;&quot;&gt;&quot;location&quot;&lt;/span&gt;&lt;span style=&quot;color:#dfdfdf;&quot;&gt; &lt;/span&gt;&lt;span style=&quot;color:#dfdfdf;font-weight:bold;&quot;&gt;:&lt;/span&gt;&lt;span style=&quot;color:#dfdfdf;&quot;&gt; &lt;/span&gt;&lt;span style=&quot;color:#dfdfdf;font-weight:bold;&quot;&gt;{&lt;/span&gt;&lt;/p&gt;&lt;p style=&quot;margin:0;&quot;&gt;&lt;span style=&quot;color:#dfdfdf;&quot;&gt;        &lt;/span&gt;&lt;span style=&quot;color:#55aa40;&quot;&gt;&quot;buildingId&quot;&lt;/span&gt;&lt;span style=&quot;color:#dfdfdf;&quot;&gt; &lt;/span&gt;&lt;span style=&quot;color:#dfdfdf;font-weight:bold;&quot;&gt;:&lt;/span&gt;&lt;span style=&quot;color:#dfdfdf;&quot;&gt; &lt;/span&gt;&lt;span style=&quot;color:#55aa40;&quot;&gt;&quot;668ec9921567b18c176488fe&quot;&lt;/span&gt;&lt;span style=&quot;color:#dfdfdf;font-weight:bold;&quot;&gt;,&lt;/span&gt;&lt;/p&gt;&lt;p style=&quot;margin:0;&quot;&gt;&lt;span style=&quot;color:#dfdfdf;&quot;&gt;        &lt;/span&gt;&lt;span style=&quot;color:#55aa40;&quot;&gt;&quot;floorId&quot;&lt;/span&gt;&lt;span style=&quot;color:#dfdfdf;&quot;&gt; &lt;/span&gt;&lt;span style=&quot;color:#dfdfdf;font-weight:bold;&quot;&gt;:&lt;/span&gt;&lt;span style=&quot;color:#dfdfdf;&quot;&gt; &lt;/span&gt;&lt;span style=&quot;color:#55aa40;&quot;&gt;&quot;668ec9e6df58a2185c2ef73f&quot;&lt;/span&gt;&lt;span style=&quot;color:#dfdfdf;font-weight:bold;&quot;&gt;,&lt;/span&gt;&lt;/p&gt;&lt;p style=&quot;margin:0;&quot;&gt;&lt;span style=&quot;color:#dfdfdf;&quot;&gt;        &lt;/span&gt;&lt;span style=&quot;color:#55aa40;&quot;&gt;&quot;zoneId&quot;&lt;/span&gt;&lt;span style=&quot;color:#dfdfdf;&quot;&gt; &lt;/span&gt;&lt;span style=&quot;color:#dfdfdf;font-weight:bold;&quot;&gt;:&lt;/span&gt;&lt;span style=&quot;color:#dfdfdf;&quot;&gt; &lt;/span&gt;&lt;span style=&quot;color:#55aa40;&quot;&gt;&quot;668ec9f5df58a2185c2ef742&quot;&lt;/span&gt;&lt;/p&gt;&lt;p style=&quot;margin:0;&quot;&gt;&lt;span style=&quot;color:#dfdfdf;&quot;&gt;    &lt;/span&gt;&lt;span style=&quot;color:#dfdfdf;font-weight:bold;&quot;&gt;},&lt;/span&gt;&lt;/p&gt;&lt;p style=&quot;margin:0;&quot;&gt;&lt;span style=&quot;color:#dfdfdf;&quot;&gt;    &lt;/span&gt;&lt;span style=&quot;color:#55aa40;&quot;&gt;&quot;status&quot;&lt;/span&gt;&lt;span style=&quot;color:#dfdfdf;&quot;&gt; &lt;/span&gt;&lt;span style=&quot;color:#dfdfdf;font-weight:bold;&quot;&gt;:&lt;/span&gt;&lt;span style=&quot;color:#dfdfdf;&quot;&gt; &lt;/span&gt;&lt;span style=&quot;color:#55aa40;&quot;&gt;&quot;Available&quot;&lt;/span&gt;&lt;span style=&quot;color:#dfdfdf;font-weight:bold;&quot;&gt;,&lt;/span&gt;&lt;/p&gt;&lt;p style=&quot;margin:0;&quot;&gt;&lt;span style=&quot;color:#dfdfdf;&quot;&gt;    &lt;/span&gt;&lt;span style=&quot;color:#55aa40;&quot;&gt;&quot;packageId&quot;&lt;/span&gt;&lt;span style=&quot;color:#dfdfdf;&quot;&gt; &lt;/span&gt;&lt;span style=&quot;color:#dfdfdf;font-weight:bold;&quot;&gt;:&lt;/span&gt;&lt;span style=&quot;color:#dfdfdf;&quot;&gt; &lt;/span&gt;&lt;span style=&quot;color:#55aa40;&quot;&gt;&quot;668f8ff6bf8a587bb1f33d04&quot;&lt;/span&gt;&lt;span style=&quot;color:#dfdfdf;font-weight:bold;&quot;&gt;,&lt;/span&gt;&lt;/p&gt;&lt;p style=&quot;margin:0;&quot;&gt;&lt;span style=&quot;color:#dfdfdf;&quot;&gt;    &lt;/span&gt;&lt;span style=&quot;color:#55aa40;&quot;&gt;&quot;exitNumber&quot;&lt;/span&gt;&lt;span style=&quot;color:#dfdfdf;&quot;&gt; &lt;/span&gt;&lt;span style=&quot;color:#dfdfdf;font-weight:bold;&quot;&gt;:&lt;/span&gt;&lt;span style=&quot;color:#dfdfdf;&quot;&gt; &lt;/span&gt;&lt;span style=&quot;color:#55aa40;&quot;&gt;&quot;01&quot;&lt;/span&gt;&lt;span style=&quot;color:#dfdfdf;font-weight:bold;&quot;&gt;,&lt;/span&gt;&lt;/p&gt;&lt;p style=&quot;margin:0;&quot;&gt;&lt;span style=&quot;color:#dfdfdf;&quot;&gt;    &lt;/span&gt;&lt;span style=&quot;color:#55aa40;&quot;&gt;&quot;deleted&quot;&lt;/span&gt;&lt;span style=&quot;color:#dfdfdf;&quot;&gt; &lt;/span&gt;&lt;span style=&quot;color:#dfdfdf;font-weight:bold;&quot;&gt;:&lt;/span&gt;&lt;span style=&quot;color:#dfdfdf;&quot;&gt; &lt;/span&gt;&lt;span style=&quot;color:#f255b3;&quot;&gt;false&lt;/span&gt;&lt;span style=&quot;color:#dfdfdf;font-weight:bold;&quot;&gt;,&lt;/span&gt;&lt;/p&gt;&lt;p style=&quot;margin:0;&quot;&gt;&lt;span style=&quot;color:#dfdfdf;&quot;&gt;    &lt;/span&gt;&lt;span style=&quot;color:#55aa40;&quot;&gt;&quot;createdAt&quot;&lt;/span&gt;&lt;span style=&quot;color:#dfdfdf;&quot;&gt; &lt;/span&gt;&lt;span style=&quot;color:#dfdfdf;font-weight:bold;&quot;&gt;:&lt;/span&gt;&lt;span style=&quot;color:#dfdfdf;&quot;&gt; &lt;/span&gt;&lt;span style=&quot;color:#55aa40;&quot;&gt;&quot;1720771076052&quot;&lt;/span&gt;&lt;span style=&quot;color:#dfdfdf;font-weight:bold;&quot;&gt;,&lt;/span&gt;&lt;/p&gt;&lt;p style=&quot;margin:0;&quot;&gt;&lt;span style=&quot;color:#dfdfdf;&quot;&gt;    &lt;/span&gt;&lt;span style=&quot;color:#55aa40;&quot;&gt;&quot;__v&quot;&lt;/span&gt;&lt;span style=&quot;color:#dfdfdf;&quot;&gt; &lt;/span&gt;&lt;span style=&quot;color:#dfdfdf;font-weight:bold;&quot;&gt;:&lt;/span&gt;&lt;span style=&quot;color:#dfdfdf;&quot;&gt; NumberInt&lt;/span&gt;&lt;span style=&quot;color:#dfdfdf;font-weight:bold;&quot;&gt;(&lt;/span&gt;&lt;span style=&quot;color:#4e96d8;&quot;&gt;0&lt;/span&gt;&lt;span style=&quot;color:#dfdfdf;font-weight:bold;&quot;&gt;),&lt;/span&gt;&lt;/p&gt;&lt;p style=&quot;margin:0;&quot;&gt;&lt;span style=&quot;color:#dfdfdf;&quot;&gt;    &lt;/span&gt;&lt;span style=&quot;color:#55aa40;&quot;&gt;&quot;customers&quot;&lt;/span&gt;&lt;span style=&quot;color:#dfdfdf;&quot;&gt; &lt;/span&gt;&lt;span style=&quot;color:#dfdfdf;font-weight:bold;&quot;&gt;:&lt;/span&gt;&lt;span style=&quot;color:#dfdfdf;&quot;&gt; &lt;/span&gt;&lt;span style=&quot;color:#55aa40;&quot;&gt;&quot;&quot;&lt;/span&gt;&lt;/p&gt;&lt;p style=&quot;background-color:#49473f;margin:0;&quot;&gt;&lt;span style=&quot;color:#dfdfdf;background-color:#35689b;font-weight:bold;&quot;&gt;}&lt;/span&gt;&lt;/p&gt;&lt;/div&gt;&lt;/div&gt;" style="text;whiteSpace=wrap;html=1;" vertex="1" parent="PcZrBQODwfO-kjVytySW-16">
          <mxGeometry y="25" width="520" height="330" as="geometry" />
        </mxCell>
        <mxCell id="cmKbnbtMbDPx5OScDKNm-33" value="1" style="text;html=1;align=center;verticalAlign=middle;whiteSpace=wrap;rounded=0;fontSize=41;" vertex="1" parent="PcZrBQODwfO-kjVytySW-16">
          <mxGeometry x="-19.860000000000014" y="195" width="60" height="30" as="geometry" />
        </mxCell>
        <mxCell id="cmKbnbtMbDPx5OScDKNm-1" style="edgeStyle=orthogonalEdgeStyle;rounded=0;orthogonalLoop=1;jettySize=auto;html=1;exitX=0.078;exitY=0.2;exitDx=0;exitDy=0;entryX=0.143;entryY=0.118;entryDx=0;entryDy=0;entryPerimeter=0;endArrow=none;endFill=0;exitPerimeter=0;" edge="1" parent="WIyWlLk6GJQsqaUBKTNV-1" source="PcZrBQODwfO-kjVytySW-0" target="PcZrBQODwfO-kjVytySW-4">
          <mxGeometry relative="1" as="geometry">
            <Array as="points">
              <mxPoint x="79.86000000000001" y="145" />
              <mxPoint x="79.86000000000001" y="485" />
              <mxPoint x="199.86" y="485" />
            </Array>
          </mxGeometry>
        </mxCell>
        <mxCell id="cmKbnbtMbDPx5OScDKNm-8" style="edgeStyle=orthogonalEdgeStyle;rounded=0;orthogonalLoop=1;jettySize=auto;html=1;exitX=0.941;exitY=0.2;exitDx=0;exitDy=0;entryX=0.077;entryY=0.864;entryDx=0;entryDy=0;entryPerimeter=0;exitPerimeter=0;endArrow=none;endFill=0;" edge="1" parent="WIyWlLk6GJQsqaUBKTNV-1" source="PcZrBQODwfO-kjVytySW-0" target="cmKbnbtMbDPx5OScDKNm-7">
          <mxGeometry relative="1" as="geometry">
            <Array as="points">
              <mxPoint x="709.86" y="145" />
              <mxPoint x="709.86" y="685" />
            </Array>
          </mxGeometry>
        </mxCell>
        <mxCell id="cmKbnbtMbDPx5OScDKNm-9" style="edgeStyle=orthogonalEdgeStyle;rounded=0;orthogonalLoop=1;jettySize=auto;html=1;exitX=0.071;exitY=0.25;exitDx=0;exitDy=0;entryX=0.923;entryY=0.288;entryDx=0;entryDy=0;entryPerimeter=0;exitPerimeter=0;endArrow=none;endFill=0;" edge="1" parent="WIyWlLk6GJQsqaUBKTNV-1" source="PcZrBQODwfO-kjVytySW-6" target="cmKbnbtMbDPx5OScDKNm-7">
          <mxGeometry relative="1" as="geometry" />
        </mxCell>
        <mxCell id="cmKbnbtMbDPx5OScDKNm-10" style="edgeStyle=orthogonalEdgeStyle;rounded=0;orthogonalLoop=1;jettySize=auto;html=1;exitX=0;exitY=0.25;exitDx=0;exitDy=0;entryX=0.923;entryY=0.348;entryDx=0;entryDy=0;entryPerimeter=0;endArrow=none;endFill=0;" edge="1" parent="WIyWlLk6GJQsqaUBKTNV-1" source="PcZrBQODwfO-kjVytySW-8" target="cmKbnbtMbDPx5OScDKNm-7">
          <mxGeometry relative="1" as="geometry" />
        </mxCell>
        <mxCell id="cmKbnbtMbDPx5OScDKNm-11" style="edgeStyle=orthogonalEdgeStyle;rounded=0;orthogonalLoop=1;jettySize=auto;html=1;exitX=0.078;exitY=0.222;exitDx=0;exitDy=0;entryX=0.923;entryY=0.409;entryDx=0;entryDy=0;entryPerimeter=0;exitPerimeter=0;endArrow=none;endFill=0;" edge="1" parent="WIyWlLk6GJQsqaUBKTNV-1" source="PcZrBQODwfO-kjVytySW-11" target="cmKbnbtMbDPx5OScDKNm-7">
          <mxGeometry relative="1" as="geometry">
            <Array as="points">
              <mxPoint x="1299.8600000000001" y="865" />
              <mxPoint x="1299.8600000000001" y="535" />
            </Array>
          </mxGeometry>
        </mxCell>
        <mxCell id="cmKbnbtMbDPx5OScDKNm-13" style="edgeStyle=orthogonalEdgeStyle;rounded=0;orthogonalLoop=1;jettySize=auto;html=1;exitX=0.059;exitY=0.182;exitDx=0;exitDy=0;entryX=0.058;entryY=0.561;entryDx=0;entryDy=0;entryPerimeter=0;exitPerimeter=0;endArrow=none;endFill=0;" edge="1" parent="WIyWlLk6GJQsqaUBKTNV-1" source="PcZrBQODwfO-kjVytySW-13" target="cmKbnbtMbDPx5OScDKNm-7">
          <mxGeometry relative="1" as="geometry">
            <Array as="points">
              <mxPoint x="679.86" y="865" />
              <mxPoint x="679.86" y="585" />
            </Array>
          </mxGeometry>
        </mxCell>
        <mxCell id="cmKbnbtMbDPx5OScDKNm-17" value="1" style="text;html=1;align=center;verticalAlign=middle;whiteSpace=wrap;rounded=0;fontSize=41;" vertex="1" parent="WIyWlLk6GJQsqaUBKTNV-1">
          <mxGeometry x="600" y="105" width="60" height="30" as="geometry" />
        </mxCell>
        <mxCell id="cmKbnbtMbDPx5OScDKNm-18" value="1" style="text;html=1;align=center;verticalAlign=middle;whiteSpace=wrap;rounded=0;fontSize=41;" vertex="1" parent="WIyWlLk6GJQsqaUBKTNV-1">
          <mxGeometry x="700" y="669" width="60" height="30" as="geometry" />
        </mxCell>
        <mxCell id="cmKbnbtMbDPx5OScDKNm-19" value="1" style="text;html=1;align=center;verticalAlign=middle;whiteSpace=wrap;rounded=0;fontSize=41;" vertex="1" parent="WIyWlLk6GJQsqaUBKTNV-1">
          <mxGeometry x="30" y="160" width="60" height="30" as="geometry" />
        </mxCell>
        <mxCell id="cmKbnbtMbDPx5OScDKNm-20" value="1" style="text;html=1;align=center;verticalAlign=middle;whiteSpace=wrap;rounded=0;fontSize=41;" vertex="1" parent="WIyWlLk6GJQsqaUBKTNV-1">
          <mxGeometry x="70.00000000000001" y="470" width="60" height="30" as="geometry" />
        </mxCell>
        <mxCell id="cmKbnbtMbDPx5OScDKNm-21" value="1" style="text;html=1;align=center;verticalAlign=middle;whiteSpace=wrap;rounded=0;fontSize=41;" vertex="1" parent="WIyWlLk6GJQsqaUBKTNV-1">
          <mxGeometry x="1241" y="460" width="60" height="30" as="geometry" />
        </mxCell>
        <mxCell id="cmKbnbtMbDPx5OScDKNm-22" value="1" style="text;html=1;align=center;verticalAlign=middle;whiteSpace=wrap;rounded=0;fontSize=41;" vertex="1" parent="WIyWlLk6GJQsqaUBKTNV-1">
          <mxGeometry x="1330" y="385" width="60" height="30" as="geometry" />
        </mxCell>
        <mxCell id="cmKbnbtMbDPx5OScDKNm-23" value="1" style="text;html=1;align=center;verticalAlign=middle;whiteSpace=wrap;rounded=0;fontSize=41;" vertex="1" parent="WIyWlLk6GJQsqaUBKTNV-1">
          <mxGeometry x="1330" y="600" width="60" height="30" as="geometry" />
        </mxCell>
        <mxCell id="cmKbnbtMbDPx5OScDKNm-24" value="1" style="text;html=1;align=center;verticalAlign=middle;whiteSpace=wrap;rounded=0;fontSize=41;" vertex="1" parent="WIyWlLk6GJQsqaUBKTNV-1">
          <mxGeometry x="1319.8600000000001" y="825" width="60" height="30" as="geometry" />
        </mxCell>
        <mxCell id="cmKbnbtMbDPx5OScDKNm-26" value="1" style="text;html=1;align=center;verticalAlign=middle;whiteSpace=wrap;rounded=0;fontSize=41;" vertex="1" parent="WIyWlLk6GJQsqaUBKTNV-1">
          <mxGeometry x="1939.8600000000001" y="385" width="60" height="30" as="geometry" />
        </mxCell>
        <mxCell id="cmKbnbtMbDPx5OScDKNm-27" value="M" style="text;html=1;align=center;verticalAlign=middle;whiteSpace=wrap;rounded=0;fontSize=41;" vertex="1" parent="WIyWlLk6GJQsqaUBKTNV-1">
          <mxGeometry x="1850" y="680" width="60" height="30" as="geometry" />
        </mxCell>
        <mxCell id="cmKbnbtMbDPx5OScDKNm-29" value="1" style="text;html=1;align=center;verticalAlign=middle;whiteSpace=wrap;rounded=0;fontSize=41;" vertex="1" parent="WIyWlLk6GJQsqaUBKTNV-1">
          <mxGeometry x="1850.0000000000002" y="594" width="60" height="30" as="geometry" />
        </mxCell>
        <mxCell id="cmKbnbtMbDPx5OScDKNm-30" value="M" style="text;html=1;align=center;verticalAlign=middle;whiteSpace=wrap;rounded=0;fontSize=41;" vertex="1" parent="WIyWlLk6GJQsqaUBKTNV-1">
          <mxGeometry x="1850" y="900" width="60" height="30" as="geometry" />
        </mxCell>
        <mxCell id="cmKbnbtMbDPx5OScDKNm-31" value="1" style="text;html=1;align=center;verticalAlign=middle;whiteSpace=wrap;rounded=0;fontSize=41;" vertex="1" parent="WIyWlLk6GJQsqaUBKTNV-1">
          <mxGeometry x="710" y="835" width="60" height="30" as="geometry" />
        </mxCell>
      </root>
    </mxGraphModel>
  </diagram>
</mxfile>
